<?xml version="1.0" standalone="no"?>
<!DOCTYPE svg PUBLIC "-//W3C//DTD SVG 1.1//EN" "http://www.w3.org/Graphics/SVG/1.1/DTD/svg11.dtd">
<svg width="100%" height="100%" viewBox="0 0 500 500" version="1.1" xmlns="http://www.w3.org/2000/svg" xmlns:xlink="http://www.w3.org/1999/xlink" xml:space="preserve" style="fill-rule:evenodd;clip-rule:evenodd;stroke-linejoin:round;stroke-miterlimit:1.41421;">
    <g transform="matrix(0.964026,0,0,0.964026,-29.4774,8.99354)">
        <path d="M289.907,55.649L334.766,164.191C336.594,168.614 339.612,172.444 343.483,175.257C347.355,178.071 351.931,179.756 356.702,180.128L473.794,189.251L384.427,265.456C380.785,268.562 378.075,272.615 376.596,277.167C375.117,281.718 374.927,286.591 376.048,291.244L403.555,405.424L303.464,343.979C299.385,341.475 294.693,340.15 289.907,340.15C285.121,340.15 280.428,341.475 276.35,343.979L176.258,405.424L203.765,291.244C204.886,286.591 204.696,281.718 203.217,277.167C201.739,272.615 199.028,268.562 195.386,265.456L106.019,189.251L223.111,180.128C227.883,179.756 232.458,178.071 236.33,175.257C240.202,172.444 243.219,168.614 245.047,164.191L289.907,55.649Z" style="fill:rgb(255,87,34);"/>
        <g transform="matrix(1.52384,0,0,1.52384,-147.619,-120.104)">
            <path d="M392.222,109.027C362.245,85.489 325.235,72.695 287.121,72.695C193.195,72.695 116.94,148.951 116.94,242.876C116.94,336.802 193.195,413.058 287.121,413.058C381.047,413.058 457.303,336.802 457.303,242.876C457.303,204.763 444.509,167.753 420.971,137.776L387.508,164.051C405.162,186.534 414.758,214.291 414.758,242.876C414.758,313.321 357.566,370.513 287.121,370.513C216.677,370.513 159.485,313.321 159.485,242.876C159.485,172.432 216.677,115.24 287.121,115.24C315.706,115.24 343.464,124.836 365.947,142.489L392.222,109.027Z" style="fill:rgb(2,136,209);"/>
        </g>
    </g>
</svg>
